<?xml version="1.0" encoding="utf-8"?>
<!-- Generator: Adobe Illustrator 25.0.0, SVG Export Plug-In . SVG Version: 6.00 Build 0)  -->
<svg version="1.1" id="Слой_1" xmlns="http://www.w3.org/2000/svg" xmlns:xlink="http://www.w3.org/1999/xlink" x="0px" y="0px"
	 viewBox="0 0 155.91 155.91" style="enable-background:new 0 0 155.91 155.91;" xml:space="preserve">
<style type="text/css">
	.st0{fill:#020203;}
</style>
<g>
	<path class="st0" d="M101.82,6.68c0.76,0.99,1.13,2.06,1.12,3.34c-0.05,3.68-0.02,7.36-0.02,11.04c0,0,0,0,0,0
		c0,4.93-0.06,9.87,0.03,14.8c0.04,2.06-0.13,3.95-1.74,5.44c-0.05,0.05-0.08,0.12-0.13,0.17c-0.46,0.57-0.44,1.05,0.18,1.53
		c2.06,1.57,4.2,3,6.51,4.18c0.86,0.44,1.57,0.44,2.27-0.32c0.57-0.62,1.28-1.12,1.88-1.72c1.07-1.09,2.37-1.9,3.52-2.9
		c0.83-0.72,0.72-1.18-0.27-1.61c-0.94-0.41-1.89-0.81-2.83-1.22c-0.63-0.27-1.01-0.71-1.09-1.43c-0.18-1.69-0.26-3.38-0.02-5.08
		c0.11-0.77,0.45-1.3,1.07-1.71c2.26-1.52,3.5-1.44,5.87,0.34c0.64,0.48,1,1.05,1.08,1.85c0.2,1.98,0.16,3.96,0.08,5.94
		c-0.02,0.6-0.15,1.2-0.5,1.71c-0.88,1.27-0.89,1.51,0.46,2.34c1.81,1.11,3.63,2.19,5.24,3.6c0.63,0.55,1.48,0.52,2.16-0.01
		c1.7-1.33,3.38-2.69,5.04-4.07c0.71-0.6,0.54-1.51-0.3-1.93c-1.01-0.51-2-1.07-2.89-1.77c-0.33-0.26-0.67-0.53-0.68-1.02
		c-0.1-2.67-0.1-5.34,0.01-8.01c0.01-0.24,0.11-0.48,0.22-0.7c0.55-1.17,0.44-1.5-0.74-2.02c-1.17-0.51-2.34-1.01-3.52-1.5
		c-0.47-0.2-0.98-0.41-1.03-0.96c-0.05-0.49,0.49-0.65,0.82-0.88c1.16-0.82,2.38-1.51,3.73-1.98c1.29-0.45,1.34-0.78,0.46-1.75
		c-1.69-1.86-3.39-3.71-5.11-5.55c-2.19-2.34-2.52-2.36-4.82-0.01c-1.72,1.76-3.68,3.2-5.63,4.67c-0.52,0.39-0.89,0.5-0.92-0.35
		c-0.14-3.75-0.44-7.5-0.02-11.24c0.25-2.21,1.5-3.07,3.7-2.56c0.72,0.17,1.45,0.32,2.19,0.41c0.42,0.05,1.01,0.24,1.15-0.41
		c0.12-0.58-0.04-1.13-0.64-1.44c-2.16-1.12-4.36-1.57-6.74-0.62c-1.38,0.56-2.49,1.45-3.54,2.45c-1.02,0.98-1.01,0.97-2.03,0.04
		c-0.99-0.9-1.96-1.86-3.27-2.31c-0.51-0.18-1.08-0.31-1.48,0.18c-0.37,0.45-0.17,0.96,0.08,1.39
		C101.03,5.59,101.41,6.15,101.82,6.68z M112.85,21.06c0.57-0.36,1.14-0.72,1.65-1.15c0.82-0.69,1.5-0.66,2.28,0.12
		c1.05,1.05,2.08,2.11,3.03,3.26c0.44,0.53,0.39,0.89-0.16,1.3c-2.33,1.73-4.71,3.39-7.27,4.75c-0.91,0.48-1.29,0.25-1.32-0.79
		c-0.03-0.92-0.01-1.84-0.01-2.76c0,0,0,0-0.01,0c0-0.42,0.07-0.86-0.01-1.27C110.7,22.86,111.57,21.87,112.85,21.06z"/>
	<path class="st0" d="M139.91,143.1c-0.29-0.86-0.36-1.72-0.36-2.61c0.01-4.81,0.03-9.62,0.01-14.43c0-0.88,0.14-1.66,0.57-2.43
		c0.61-1.08,0.4-1.78-0.77-2.13c-1.93-0.59-3.76-1.45-5.67-2.08c-5.14-1.68-10.12-3.74-15.01-6.04c-1.04-0.49-1.82-1.11-2.13-2.32
		c-0.3-1.18-1.16-1.37-2.07-0.55c-0.31,0.28-0.56,0.64-0.77,1c-0.65,1.11-1.02,2.33-1.29,3.58c-0.51,2.39,0,3.41,2.23,4.5
		c1.72,0.84,3.49,1.54,5.28,2.23c0.28,0.11,0.73,0.09,0.76,0.46c0.03,0.35-0.36,0.49-0.64,0.62c-1.38,0.63-2.72,1.35-4.19,1.8
		c-1.49,0.46-1.69,0.77-1.51,2.3c0.2,1.72,0.65,3.4,0.62,5.16c-0.05,2.79-0.04,5.59-0.01,8.38c0.02,1.53,0.01,3.04-0.73,4.44
		c-0.13,0.24-0.16,0.54-0.19,0.66c-0.01,0.76,0.03,0.86,0.68,1.04c3.87,1.1,7.46,2.82,10.81,5.02c0.79,0.51,1.46,0.4,2.15-0.09
		c0.89-0.64,1.76-1.31,2.66-1.93c2.59-1.79,5.58-2.54,8.58-3.25c1.01-0.24,1.45-0.75,1.27-1.77
		C140.09,144.14,140.07,143.59,139.91,143.1z M131.13,135.84C131.13,135.84,131.13,135.84,131.13,135.84
		c-0.01,2.55,0,5.09-0.01,7.64c0,1.27-0.12,1.33-1.24,0.85c-1.84-0.79-3.56-1.86-5.5-2.45c-0.5-0.15-0.98-0.53-0.99-1.23
		c-0.11-5.37-0.46-10.74-0.27-16.12c0.04-1.02,0.27-1.13,1.25-0.72c1.98,0.82,3.9,1.81,5.99,2.38c0.77,0.21,0.75,0.98,0.76,1.59
		C131.15,130.47,131.13,133.15,131.13,135.84z"/>
	<path class="st0" d="M119.83,93.69c1.35-0.41,2.72-0.77,4.08-1.14c1.44-0.39,1.45-0.44,1.39-1.97c-0.04-1.11-0.64-2.08-0.63-3.21
		c0.03-5.06,0.02-10.11,0-15.17c0-0.91,0.14-1.73,0.59-2.53c0.58-1.04,0.38-1.71-0.75-2.05c-2.07-0.62-4.01-1.6-6.06-2.24
		c-4.97-1.57-9.72-3.67-14.45-5.83c-1.14-0.52-2.02-1.2-2.35-2.53c-0.26-1.05-1.1-1.21-1.97-0.53c-0.34,0.26-0.61,0.59-0.79,0.98
		c-0.72,1.14-1.08,2.41-1.37,3.71c-0.53,2.45,0.19,3.73,2.58,4.62c1.53,0.9,3.21,1.44,4.85,2.09c0.31,0.12,0.83,0.11,0.85,0.51
		c0.01,0.45-0.51,0.52-0.85,0.68c-1.47,0.69-2.94,1.37-4.49,1.89c-1.1,0.28-1.15,1.12-1.03,2.01c0.18,1.3,0.63,2.6,0.57,3.87
		c-0.24,4.9,0.93,9.89-0.81,14.71c-0.23,0.63,0,1.05,0.73,1.23c0.99,0.25,1.96,0.61,2.93,0.93c2.42,0.99,4.78,2.13,6.99,3.53
		c1.87,1.19,2.16,1.15,3.89-0.26C115.55,95.54,117.56,94.38,119.83,93.69z M109.26,87.7c-0.49-0.23-0.74-0.58-0.75-1.16
		c-0.11-5.3-0.44-10.59-0.27-15.9c0.03-1,0.3-1.14,1.25-0.72c1.9,0.85,3.8,1.71,5.81,2.3c0.97,0.29,0.91,1.09,0.93,1.8
		c0.04,2.65,0.02,5.3,0.02,7.95c0.02,0,0.04,0,0.06,0c0,2.65-0.03,5.29,0.01,7.94c0.01,0.9-0.37,0.96-1.03,0.65
		C113.27,89.62,111.27,88.65,109.26,87.7z"/>
	<path class="st0" d="M82.58,94.57c1.55,0.87,2.87,2.06,4.26,3.15c0.63,0.49,1.19,0.55,1.83,0.13c2.04-1.34,3.74-3.02,5.11-5.03
		c0.58-0.84,0.36-1.41-0.59-1.82c-0.26-0.11-0.53-0.21-0.8-0.27c-1.03-0.22-1.4-0.82-1.39-1.89c0.05-5.09,0.04-10.19,0-15.29
		c-0.01-1.14,0.21-2.03,1.18-2.76c0.95-0.71,0.88-1.05-0.13-1.75c-1.19-0.82-2.48-1.51-3.56-2.45c-1.1-0.95-2.32-1.73-3.43-2.66
		c-0.45-0.38-0.77-0.3-1.16,0.12c-0.71,0.74-1.46,1.44-2.22,2.13c-1.91,1.75-3.89,3.4-6.1,4.76c-0.88,0.54-1,0.48-1.03-0.52
		c-0.03-0.81-0.04-1.63-0.01-2.44c0.02-0.43-0.11-0.75-0.46-1c-1.59-1.13-3.24-2.16-5.04-2.92c-0.61-0.26-1.13-0.18-1.66,0.26
		c-1.4,1.16-2.63,2.47-3.77,3.87c-1.65,2.02-1.63,2.14,0.74,3.23c1.21,0.56,2.08,1.34,2.08,2.79c0,4.6,0.02,9.2,0,13.8
		c-0.01,1.45-0.32,2.77-1.59,3.74c-1.07,0.82-1.03,0.96-0.05,1.95c1.45,1.47,3.26,2.49,4.79,3.86c0.71,0.64,1.29,0.67,2.02,0.02
		c1.44-1.26,2.93-2.46,4.41-3.66c2.29-1.85,2.31-1.98-0.32-3.31c-1.06-0.54-1.47-1.26-1.43-2.44c0.08-2.09,0.02-4.18,0.02-6.26
		c0,0,0.01,0,0.01,0c0-2.23,0-4.46,0-6.69c0-1.1,2.45-3.65,3.54-3.68c0.21,0,0.42,0.05,0.62,0.12c1.4,0.46,2.59,1.27,3.69,2.23
		c0.39,0.34,0.46,0.76,0.5,1.23c0.28,3.21,0.27,6.43,0.25,9.65c-0.02,2.89,0.21,5.82-0.92,8.6C81.71,94.01,82.16,94.33,82.58,94.57z
		"/>
	<path class="st0" d="M57.68,90.48c-1.2-0.73-1.8-1.7-1.91-3.08c-0.19-2.44-0.21-4.88-0.16-7.31c0.06-3.26-0.46-6.59,0.95-9.72
		c0.06-0.12,0.04-0.28,0.05-0.31c0.02-0.89-0.01-1.04-0.77-1.29c-3.2-1.04-6.39-2.06-9.1-4.16c-0.08-0.06-0.19-0.09-0.29-0.14
		c-1.12-0.53-2.14-0.41-2.99,0.53c-1.11,1.23-2.54,2.01-3.94,2.84c-1.09,0.65-2.2,1.28-3.23,2.03c-2.5,1.8-3.07,3.77-2.04,6.68
		c0.42,1.19,1.15,2.18,2.02,3.08c0.77,0.81,0.7,1.1-0.41,1.36c-0.89,0.21-1.82,0.29-2.72,0.47c-1.51,0.31-1.61,0.7-1.24,2.2
		c0.62,2.53,1.25,5.11-0.07,7.64c-0.4,0.77-0.22,1.4,0.34,2.02c1.48,1.63,3.09,3.1,4.89,4.37c0.79,0.56,1.52,0.54,2.35,0.05
		c2.48-1.44,4.75-3.2,7.12-4.79c0.79-0.53,1.49-0.49,2.07,0.19c1.1,1.29,2.37,2.43,3.26,3.89c0.8,1.31,1.62,1.47,2.92,0.64
		c1.32-0.84,2.46-1.9,3.49-3.08C60.13,92.48,60.09,91.93,57.68,90.48z M37.88,77.96c-1.87-1.73-1.86-4.48-0.05-6.23
		c0.74-0.72,1.56-0.98,2.6-0.49c1.98,0.92,3.96,1.86,6.07,2.5c0.67,0.2,1.05,0.64,1,1.41c-0.05,0.81-0.01,1.62-0.01,2.44
		c0,0,0,0,0.01,0c0,0.85,0,1.7,0,2.54c0,0.37-0.01,0.75-0.53,0.72C43.68,80.68,40.44,80.33,37.88,77.96z M47.79,89.39
		c-0.17,1.17-3.01,3.06-4.51,2.97c-1.52-0.1-3.07-1.8-3.16-3.45c0-0.67-0.22-3.67-0.24-4.33c-0.04-1.33,0.62-2.16,1.94-2.2
		c1.74-0.06,3.43,0.37,5.15,0.54c0.42,0.04,0.55,0.39,0.57,0.78c0.1,1.8,0.2,3.59,0.29,5.39C47.83,89.18,47.8,89.28,47.79,89.39z"/>
	<path class="st0" d="M78,118.41c-0.76-0.85-1.29-0.74-1.91,0.24c-0.25,0.39-0.46,0.8-0.69,1.19c-1.08,1.78-1.99,3.68-3.45,5.2
		c-0.28,0.29-0.57,0.8-1.01,0.63c-0.55-0.22-0.43-0.84-0.37-1.32c0.09-0.77,0.23-1.54,0.36-2.3c0.1-0.59-0.09-0.99-0.6-1.33
		c-1.14-0.78-2.25-1.6-3.34-2.44c-0.47-0.36-0.82-0.34-1.31-0.02c-2.44,1.57-4.72,3.37-7.06,5.08c-0.79,0.57-0.69,1.47,0.21,1.97
		c0.67,0.37,1.43,0.61,2.17,0.84c0.86,0.26,1.22,0.71,1.21,1.68c-0.06,4.31-0.06,8.63-0.01,12.94c0.02,1.45,0.09,2.83-1.47,3.61
		c-0.15,0.07-0.25,0.25-0.36,0.39c-0.67,0.9-0.58,1.35,0.37,1.97c2.3,1.51,4.71,2.86,6.9,4.55c1.53,1.18,1.89,1.13,3.41-0.08
		c2.29-1.83,4.53-3.74,7.18-5.06c0.69-0.35,1.3-0.86,1.84-1.43c0.49-0.52,0.65-1.14,0.62-1.85c-0.02-0.63-0.33-0.79-0.89-0.71
		c-0.79,0.12-1.31,0.66-1.83,1.19c-1.89,1.9-3.27,2.02-5.54,0.62c-1.25-0.77-1.91-1.76-1.94-3.27c-0.04-1.77,0-3.54,0.06-5.3
		c0-1.52,0.04-3.04-0.02-4.56c-0.03-0.92,0.17-1.73,0.65-2.51c0.38-0.61,0.67-1.37,1.5-1.31c0.79,0.06,1.1,0.8,1.41,1.45
		c0.81,1.67,1.13,3.49,1.65,5.25c0.14,0.49,0.17,1.06,0.92,1.11c0.74,0.05,1.17-0.22,1.49-0.9c1.1-2.39,2.46-4.62,4.31-6.51
		c0.4-0.41,0.56-0.91,0.32-1.35C81.32,123.41,80.03,120.67,78,118.41z"/>
	<path class="st0" d="M108.84,124.03c-2.76-1.97-5.71-3.67-8.36-5.8c-0.92-0.74-1.53-0.63-2.4,0.19c-3.03,2.83-6.61,4.7-10.52,5.97
		c-2.03,0.66-2.38,1.32-1.47,3.28c0.45,0.98,0.68,1.97,0.74,3.05c0.13,2.37,0.13,4.74,0.06,7.1c-0.07,2.72,0.66,5.58-1.43,8.01
		c-0.62,0.72-0.17,1.46,0.8,1.9c0.9,0.41,1.83,0.76,2.72,1.19c1.71,0.82,3.54,1.35,5.05,2.62c1.1,0.93,2.41,0.71,3.55-0.35
		c0.45-0.42,0.94-0.74,1.46-1.04c2.22-1.28,4.47-2.53,6.74-3.71c0.8-0.42,1.78-0.69,2.32-1.56c0.3-0.48,0.48-0.97,0.13-1.48
		c-0.33-0.48-0.82-0.49-1.33-0.32c-0.57,0.18-1.14,0.37-1.72,0.55c-1.14,0.36-2.29,0.71-3.42,1.07c-2.04-0.58-4.04-1.15-6.04-1.73
		c-0.34-0.1-0.34-0.39-0.36-0.69c-0.17-2.12-0.18-4.18,2.05-5.39c0.03-0.02,0.05-0.04,0.08-0.07c3.82-3.47,7.64-6.95,11.45-10.43
		C109.98,125.44,109.94,124.82,108.84,124.03z M101.25,130.35c-1.7,1.7-3.47,3.32-5.38,4.78c-0.19,0.14-0.36,0.43-0.63,0.31
		c-0.33-0.15-0.17-0.5-0.17-0.76c-0.02-1.52-0.01-3.04-0.01-4.55c0,0,0.01,0,0.01,0c0-1.55,0-3.11,0-4.66c0-0.4-0.01-0.8,0.42-1
		c0.44-0.21,0.73,0.09,1.03,0.34c1.54,1.3,3.06,2.61,4.61,3.89C101.77,129.22,101.89,129.71,101.25,130.35z"/>
	<path class="st0" d="M35.54,143.74c-0.11,0.09-0.23,0.18-0.31,0.29c-0.95,1.36-2.19,1.39-3.56,0.76c-0.61-0.28-1.17-0.66-1.78-0.94
		c-0.92-0.43-1.25-1.16-1.24-2.14l-0.23-5.94c0-0.99,0-1.98,0-2.97c0-0.99-0.01-1.98,0.01-2.97c0.03-1.37,0.26-1.62,1.64-1.59
		c1.77,0.04,3.53,0.15,5.3,0.24c0.74,0.04,1.1-0.24,1.1-1.04c0.01-0.99,0.16-1.97,0.21-2.96c0.08-1.57-0.18-1.81-1.73-1.73
		c-1.7,0.08-3.37,0.37-5.08,0.32c-0.96-0.03-1.27-0.43-1.15-1.31c0.15-1.16,0.27-2.32,0.45-3.47c0.24-1.54,0.52-3.07,0.77-4.61
		c0.09-0.56-0.05-1.12-0.53-1.4c-0.54-0.32-0.92,0.16-1.27,0.49c-0.28,0.26-0.52,0.58-0.76,0.88c-1.16,1.43-1.99,3.09-3.19,4.5
		c-2.45,2.88-4.82,5.84-7.61,8.42c-0.31,0.28-0.83,0.57-0.52,1.14c0.27,0.49,0.77,0.57,1.29,0.56c0.74-0.01,1.49-0.01,2.23-0.03
		c0.75-0.03,1.06,0.28,1.07,1.07c0.06,4.1,0.15,8.21,0.28,12.31c0.05,1.79-0.6,3.21-1.92,4.4c-1.01,0.92-0.99,1.28,0.2,1.9
		c2.36,1.21,4.75,2.36,7.02,3.74c1,0.61,1.99,0.53,3-0.09c2.85-1.74,5.44-3.81,7.96-5.99c0.69-0.6,0.73-1.36,0.23-1.98
		C36.82,142.86,36.13,143.26,35.54,143.74z"/>
	<path class="st0" d="M55.23,145.25c-0.59-0.31-1.25-0.5-1.86-0.76c-1.47-0.63-1.99-1.44-1.99-3.03c0-4.74,0.02-9.48-0.03-14.22
		c-0.01-1.07,0.27-1.89,1.05-2.64c1.17-1.11,1.09-1.96-0.3-2.79c-1.88-1.13-3.77-2.23-5.54-3.53c-0.5-0.37-1.05-0.45-1.55,0
		c-1.81,1.64-3.6,3.3-5.41,4.93c-0.67,0.61-0.41,1.07,0.22,1.4c0.62,0.32,1.31,0.53,1.96,0.8c1.02,0.43,1.49,1.14,1.46,2.31
		c-0.07,2.68-0.02,5.37-0.02,8.06l0.02,6.71c0.05,1.75-0.39,2.96-2.04,4.11c-0.86,0.6-0.62,1.47,0.38,1.95
		c1.87,0.9,3.77,1.73,5.45,3.02c1.12,0.86,1.9,0.68,3.05-0.23c1.33-1.06,2.63-2.15,4.06-3.08c0.5-0.32,0.99-0.7,1.4-1.12
		C56.22,146.45,56.1,145.7,55.23,145.25z"/>
	<path class="st0" d="M79.22,42.62c1.76,0.68,3.38,1.61,4.92,2.69c0.95,0.67,1.95,1.28,2.93,1.91c0.58,0.38,1.17,0.41,1.8,0.06
		c2.7-1.52,5.42-3.03,8.13-4.54c0.74-0.4,1.49-0.79,2.21-1.22c0.63-0.37,0.66-1.01,0.45-1.59c-0.2-0.54-0.76-0.39-1.2-0.32
		c-0.68,0.1-1.26,0.43-1.75,0.9c-1.1,0.66-2.22,1.04-3.51,0.49c-1.3-0.56-2.59-1.11-3.81-1.84c-0.76-0.45-1.06-1.04-1.05-1.91
		c0.1-5.08-0.12-10.17,0.18-15.25c0.07-1.23,0.18-1.32,1.27-0.73c1.61,0.87,3.1,1.97,4.79,2.71c0.5,0.33,1.03,0.62,1.5,0.99
		c0.66,0.52,1.04,0.34,1.35-0.37c0.78-1.74,1.56-3.48,2.39-5.2c0.33-0.7,0.13-1.09-0.46-1.49c-1.9-1.29-3.88-2.45-5.96-3.43
		c-0.24-0.14-0.48-0.29-0.73-0.43c-1.34-0.71-1.63-0.63-2.46,0.68c-0.24,0.39-0.47,0.81-0.79,1.12c-2.58,2.5-5.69,4.03-9.12,4.95
		c-1.32,0.35-1.62,0.99-0.73,2.08c0.56,0.69,0.83,1.44,0.93,2.31c0.29,2.68,0.12,5.37,0.24,8.05c0.13,2.82-0.08,5.5-1.95,7.81
		C78.2,41.73,78.4,42.3,79.22,42.62z"/>
	<path class="st0" d="M32.6,36.45c-0.43,0.78-1.03,1.41-1.72,1.97c-1.01,0.83-2.03,1.65-3,2.53c-2.04,1.86-3.33,4.04-2.72,6.94
		c0.18,0.83,0.53,1.62,1.48,1.72c0.97,0.1,2.14,0.31,2.75-0.62c0.52-0.78-0.31-1.49-0.72-2.16c-0.02-0.03-0.04-0.06-0.06-0.09
		c-0.42-0.69-1.03-1.41-0.43-2.22c0.59-0.8,1.51-0.81,2.42-0.62c0.67,0.13,1.28,0.41,1.83,0.81c0.66,0.48,1.35,0.92,1.93,1.48
		c1.86,1.79,3.83,1.92,5.96,0.53c0.56-0.37,1.17-0.67,1.74-1.02c0.66-0.42,1.36-0.73,2.11-0.98c2.48-0.84,4.92-1.74,7.56-2.05
		c1.57-0.19,1.82-0.84,1.21-2.31c-0.29-0.68-0.54-1.38-0.8-2.07c-0.02-0.11-0.03-0.22-0.05-0.33c0-0.27-0.01-0.54-0.01-0.81
		c0-0.18,0-0.35,0-0.53c0,0,0-0.08,0-0.08c0.1-0.67,0.11-1.34,0-2.02c0-0.08-0.01-0.15-0.01-0.23c0.21-0.97-0.02-2.02,0.8-2.89
		c1.12-1.18,1.01-1.46-0.52-2.16c-0.93-0.42-1.92-0.74-2.78-1.31c-0.59-0.4-0.75-0.81-0.08-1.31c0.57-0.42,1.1-0.89,1.63-1.36
		c2.26-2.01,4.37-4.14,5.63-6.96c0.87-1.94,0.99-3.97,0.67-6.03c-0.12-0.78-0.42-1.57-1.42-1.57c-0.86,0-1.68,0.24-2.4,0.74
		c-0.49,0.34-0.67,0.76-0.46,1.37c0.36,1.04,0.63,2.1,0.97,3.14c0.4,1.23,0.15,2.35-0.7,3.25c-0.86,0.91-1.98,0.8-3.06,0.37
		c-1.23-0.49-2.34-1.17-3.4-1.94c-1.77-1.29-3.55-2.57-5.29-3.9c-0.87-0.67-1.66-0.64-2.49,0.04c-1.15,0.94-2.35,1.82-3.47,2.79
		c-1.28,1.11-2.67,1.94-4.32,2.39c-1.29,0.35-2.58,0.75-3.78,1.39c-0.66,0.35-0.97,0.81-0.61,1.55c1.28,2.62,0.61,5.43,0.74,8.16
		c0.01,0.22-0.17,0.45-0.28,0.67c-0.75,1.42-0.41,2.36,1.11,2.9c0.9,0.32,1.84,0.51,2.74,0.83C32.23,34.74,32.78,35.38,32.6,36.45
		C32.6,36.45,32.6,36.45,32.6,36.45z M36.55,21.8c0-1.15,0.16-1.27,1.2-0.68c1.42,0.8,2.79,1.68,4.18,2.51
		c1.09,0.65,2.17,1.33,3.29,1.93c0.63,0.34,0.68,0.72,0.33,1.27c-0.29,0.45-0.63,0.84-1.08,1.14c-0.93,0.63-1.85,1.29-2.77,1.95
		c-0.32,0.23-0.64,0.45-1.08,0.42c-1.26-0.43-2.55-0.81-3.64-1.64c-0.43-0.33-0.45-0.84-0.45-1.36
		C36.55,25.51,36.55,23.65,36.55,21.8z M37.39,35.23c1.05-1.01,2.18-1.93,3.53-2.51c1.66-0.72,2.78,0.03,2.78,1.78
		c0,0.6,0.03,1.2,0.05,1.8c0,0.11,0,0.23,0,0.34c0,0.17,0,0.33,0,0.5c-0.01,1.23-0.01,2.47-0.02,3.7c-0.01,1.14-0.23,1.32-1.22,0.78
		c-2.38-1.3-4.77-2.59-6.88-4.33l0,0C35.91,36.35,36.74,35.85,37.39,35.23z"/>
	<path class="st0" d="M60.14,20.14c0.56,0.29,1.18,0.46,1.77,0.71c1.28,0.53,1.61,1.05,1.59,2.43c-0.01,1.38-0.02,2.75-0.03,4.13
		c-0.08,3.49-0.23,6.99-0.22,10.48c0,1.67-0.13,3.09-1.69,4.15c-0.87,0.59-0.66,1.54,0.27,1.99c1.77,0.86,3.57,1.62,5.18,2.83
		c1.46,1.1,2.15,0.92,3.61-0.27c0.44-0.35,0.88-0.71,1.33-1.05c1.16-0.87,2.35-1.69,3.48-2.59c1.14-0.92,1-1.79-0.35-2.38
		c-0.68-0.3-1.41-0.5-2.04-0.86c-0.96-0.55-1.6-1.36-1.57-2.55l0.08-2.95c-0.01-0.11-0.01-0.22-0.02-0.32
		c0.01-0.25,0.02-0.49,0.03-0.74c0-0.1,0-0.21,0-0.31c0-0.12,0-0.25,0-0.37c0.02-3.36,0.06-6.72,0.05-10.07
		c0-0.84,0.27-1.49,0.86-2.07c1.43-1.41,1.34-2.17-0.42-3.18c-1.78-1.03-3.53-2.09-5.18-3.31c-0.6-0.44-1.15-0.45-1.71,0.07
		c-1.75,1.6-3.51,3.18-5.25,4.79C59.28,19.27,59.35,19.74,60.14,20.14z"/>
	<path class="st0" d="M45.55,116.93c0.45,0.19,0.83-0.1,1.1-0.44c2.04-2.53,4.1-5.04,6.08-7.61c0.75-0.98,0.22-1.88-1.03-1.98
		c-0.39-0.03-0.77-0.05-1.21-0.08c-0.55,0.03-1.16,0.01-1.75,0.09c-1.01,0.14-1.74,0.54-1.9,1.74c-0.16,1.18-0.56,2.32-0.83,3.49
		c-0.29,1.27-0.77,2.51-0.68,3.84C45.35,116.31,45.14,116.76,45.55,116.93z"/>
	<path class="st0" d="M65.93,12.46c0.57,0.18,0.94-0.35,1.29-0.76c0.02-0.03,0.04-0.06,0.07-0.08c1.19-1.49,2.38-2.98,3.57-4.47
		c0.68-0.85,1.41-1.68,2.04-2.57c0.83-1.15,0.4-2.07-0.97-2.14c-0.92-0.05-1.84-0.09-2.75-0.01c-0.68,0.06-1.56,0.11-1.77,0.9
		C66.7,5.91,66,8.5,65.55,11.08C65.75,11.59,65.28,12.26,65.93,12.46z"/>
</g>
</svg>
